<svg xmlns="http://www.w3.org/2000/svg" width="402" height="348.739"><defs><style>.a{fill:#0066ac}.c{fill:#c6d5df}.d{fill:#d2e2ed}.e{fill:#eaf3fa}.f{fill:#d1dde7}.k,.l{fill:#1182c8;fill-rule:evenodd}.l{fill:#6dbdef;opacity:.34}.w{fill:#3096d6}</style><clipPath id="a"><path class="a" transform="translate(-.252 .259)" d="M0 0h218v297H0z"/></clipPath></defs><g opacity=".58"><g transform="translate(127.77)"><path class="c" d="M3.89 0h125.025c2.149 0 3.89 3.093 3.89 6.907v316.28H-.003V6.905C-.003 3.091 1.741 0 3.89 0z"/><path class="d" d="M38.304.09h123.8c2.182.1 3.906 3.366 3.851 7.291v315.806H34.451V7.381C34.398 3.457 36.122.192 38.304.09z"/><path class="c" d="M42.048 23.103h116.461c1.228 0 2.223 1.828 2.223 4.084v286.841H39.825V27.187c0-2.256.995-4.084 2.223-4.084z"/><path class="e" d="M46.734 30.497h106.705v23.021H46.734zm0 25.717h106.705v23.021H46.734zm0 30.874h106.705V98.44H46.734z"/><path class="f" d="M52.911 89.532h27.106v2.566H52.911zm0 3.733h27.106v2.566H52.911zm32.662-3.89h27.242v6.455H85.573zm32.784.157h27.242v2.566h-27.242zm0 3.733h27.242v2.566h-27.242z"/><path class="e" d="M46.734 238.211h106.705v11.352H46.734z"/><path class="f" d="M52.911 240.654h27.106v2.566H52.911zm0 3.733h27.106v2.566H52.911zm32.662-3.889h27.242v6.455H85.573zm32.784.156h27.242v2.566h-27.242zm0 3.733h27.242v2.566h-27.242z"/><rect class="f" width="15.849" height="13.764" rx=".634" transform="translate(52.911 35.164)"/><rect class="f" width="15.849" height="13.764" rx=".634" transform="translate(52.911 60.881)"/><path class="f" d="M85.621 35.164h27.242v2.566H85.621zm0 3.733h27.242v2.566H85.621zm0 3.733h27.242v2.566H85.621zm0 3.733h27.242v2.566H85.621zm32.737-11.199H145.6v2.566h-27.242zm0 3.733H145.6v2.566h-27.242zm0 3.733H145.6v2.566h-27.242zm0 3.733H145.6v2.566h-27.242zM85.621 60.725h27.242v2.566H85.621zm0 3.733h27.242v2.566H85.621zm0 3.733h27.242v2.566H85.621zm0 3.733h27.242v2.566H85.621zm32.737-11.199H145.6v2.566h-27.242zm0 3.733H145.6v2.566h-27.242zm0 3.733H145.6v2.566h-27.242zm0 3.733H145.6v2.566h-27.242z"/><rect class="f" width="2.8" height="2.8" rx=".798" transform="translate(74.111 35.164)"/><rect class="f" width="2.8" height="2.8" rx=".798" transform="translate(74.111 60.881)"/><rect class="f" width="2.8" height="2.8" rx=".798" transform="translate(74.111 40.764)"/><rect class="f" width="2.8" height="2.8" rx=".798" transform="translate(74.111 66.48)"/><rect class="f" width="2.8" height="2.8" rx=".798" transform="translate(74.111 46.052)"/><rect class="f" width="2.8" height="2.8" rx=".798" transform="translate(74.111 71.769)"/><path class="e" d="M46.734 105.825h106.705v23.021H46.734zm0 76.663h106.705v23.021H46.734zm0 25.554h106.705v23.021H46.734z"/><rect class="f" width="15.849" height="13.764" rx=".634" transform="translate(52.911 110.491)"/><rect class="f" width="15.849" height="13.764" rx=".634" transform="translate(52.911 187.154)"/><rect class="f" width="15.849" height="13.764" rx=".634" transform="translate(52.911 212.708)"/><path class="f" d="M85.621 110.491h27.242v2.566H85.621zm0 3.733h27.242v2.566H85.621zm0 3.733h27.242v2.566H85.621zm0 3.733h27.242v2.566H85.621zm32.737-11.199H145.6v2.566h-27.242zm0 3.733H145.6v2.566h-27.242zm0 3.733H145.6v2.566h-27.242zm0 3.733H145.6v2.566h-27.242zm-32.737 65.464h27.242v2.566H85.621zm0 3.733h27.242v2.566H85.621zm0 3.733h27.242v2.566H85.621zm0 3.734h27.242v2.566H85.621zm32.737-11.2H145.6v2.566h-27.242zm0 3.733H145.6v2.566h-27.242zm0 3.733H145.6v2.566h-27.242zm0 3.734H145.6v2.566h-27.242zm-32.737 14.354h27.242v2.566H85.621zm0 3.733h27.242v2.566H85.621zm0 3.733h27.242v2.566H85.621zm0 3.733h27.242v2.566H85.621zm32.737-11.199H145.6v2.566h-27.242zm0 3.733H145.6v2.566h-27.242zm0 3.733H145.6v2.566h-27.242zm0 3.733H145.6v2.566h-27.242z"/><rect class="f" width="2.8" height="2.8" rx=".798" transform="translate(74.11 110.491)"/><rect class="f" width="2.8" height="2.8" rx=".798" transform="translate(74.11 187.154)"/><rect class="f" width="2.8" height="2.8" rx=".798" transform="translate(74.11 212.708)"/><rect width="2.8" height="2.8" rx=".798" transform="translate(74.11 116.09)" fill="#d4d2d2"/><rect class="f" width="2.8" height="2.8" rx=".798" transform="translate(74.11 192.753)"/><rect class="f" width="2.8" height="2.8" rx=".798" transform="translate(74.11 218.308)"/><rect class="f" width="2.8" height="2.8" rx=".798" transform="translate(74.11 121.38)"/><rect class="f" width="2.8" height="2.8" rx=".798" transform="translate(74.11 198.042)"/><path class="e" d="M46.734 256.675h106.705v23.021H46.734z"/><rect class="f" width="15.849" height="13.764" rx=".634" transform="translate(52.911 261.341)"/><path class="f" d="M85.621 261.341h27.242v2.566H85.621zm0 3.733h27.242v2.566H85.621zm0 3.733h27.242v2.566H85.621zm0 3.733h27.242v2.566H85.621zm32.737-11.199H145.6v2.566h-27.242zm0 3.733H145.6v2.566h-27.242zm0 3.733H145.6v2.566h-27.242zm0 3.733H145.6v2.566h-27.242z"/><rect class="f" width="2.8" height="2.8" rx=".798" transform="translate(74.11 261.341)"/><rect class="f" width="2.8" height="2.8" rx=".798" transform="translate(74.11 266.941)"/><rect class="f" width="2.8" height="2.8" rx=".798" transform="translate(74.11 272.23)"/><path class="e" d="M46.734 282.32h106.705v23.021H46.734z"/><rect class="f" width="15.849" height="13.764" rx=".634" transform="translate(52.911 286.987)"/><path class="f" d="M85.621 286.987h27.242v2.566H85.621zm0 3.733h27.242v2.566H85.621zm0 3.733h27.242v2.566H85.621zm0 3.733h27.242v2.566H85.621zm32.737-11.199H145.6v2.566h-27.242zm0 3.733H145.6v2.566h-27.242zm0 3.733H145.6v2.566h-27.242zm0 3.733H145.6v2.566h-27.242z"/><rect class="f" width="2.8" height="2.8" rx=".798" transform="translate(74.11 286.987)"/><rect class="f" width="2.8" height="2.8" rx=".798" transform="translate(74.11 292.586)"/><rect class="f" width="2.8" height="2.8" rx=".798" transform="translate(74.11 297.875)"/><rect class="f" width="2.8" height="2.8" rx=".798" transform="translate(74.11 223.597)"/><path class="e" d="M46.734 131.541h106.705v23.021H46.734z"/><rect class="f" width="15.849" height="13.764" rx=".634" transform="translate(52.911 136.207)"/><path class="f" d="M85.621 136.207h27.242v2.566H85.621zm0 3.733h27.242v2.566H85.621zm0 3.733h27.242v2.566H85.621zm0 3.734h27.242v2.566H85.621zm32.737-11.2H145.6v2.566h-27.242zm0 3.733H145.6v2.566h-27.242zm0 3.733H145.6v2.566h-27.242zm0 3.734H145.6v2.566h-27.242z"/><rect class="f" width="2.8" height="2.8" rx=".798" transform="translate(74.11 136.207)"/><rect class="f" width="2.8" height="2.8" rx=".798" transform="translate(74.11 141.807)"/><rect class="f" width="2.8" height="2.8" rx=".798" transform="translate(74.11 147.096)"/><path class="e" d="M46.734 157.102h106.705v23.021H46.734z"/><rect class="f" width="15.849" height="13.764" rx=".634" transform="translate(52.911 161.768)"/><path class="f" d="M85.621 161.768h27.242v2.566H85.621zm0 3.733h27.242v2.566H85.621zm0 3.733h27.242v2.566H85.621zm0 3.734h27.242v2.566H85.621zm32.737-11.2H145.6v2.566h-27.242zm0 3.733H145.6v2.566h-27.242zm0 3.733H145.6v2.566h-27.242zm0 3.734H145.6v2.566h-27.242z"/><rect class="f" width="2.8" height="2.8" rx=".798" transform="translate(74.11 161.768)"/><rect class="f" width="2.8" height="2.8" rx=".798" transform="translate(74.11 167.368)"/><rect class="f" width="2.8" height="2.8" rx=".798" transform="translate(74.11 172.657)"/><path class="c" d="M50.288 10.303H150.86a3.056 3.056 0 0 1 3.055 3.056 3.056 3.056 0 0 1-3.055 3.056H50.288a3.056 3.056 0 0 1-3.055-3.056 3.055 3.055 0 0 1 3.055-3.056z"/></g><g transform="translate(0 31.785)"><path class="c" d="M3.179 0h123.126c1.756 0 3.179 2.044 3.179 4.566v282.27c0 2.521-1.423 4.566-3.179 4.566H3.179c-1.756 0-3.179-2.044-3.179-4.566V4.561C0 2.044 1.423 0 3.179 0z"/><path class="d" d="M28.118 0h123.127c1.756 0 3.179 2.048 3.179 4.574v282.253c0 2.527-1.423 4.575-3.179 4.575H28.118c-1.756 0-3.179-2.048-3.179-4.575V4.574C24.939 2.048 26.362 0 28.118 0z"/><path class="c" d="M36.9 12.338h106.783a2.7 2.7 0 0 1 2.7 2.7 2.7 2.7 0 0 1-2.7 2.7H36.9a2.7 2.7 0 0 1-2.7-2.7 2.7 2.7 0 0 1 2.7-2.7z"/><rect class="e" width="111.741" height="29.641" rx="1.389" transform="translate(34.71 26.92)"/><rect class="e" width="111.741" height="29.641" rx="1.389" transform="translate(34.71 62.514)"/><rect class="c" width="111.741" height="62.539" rx="1.389" transform="translate(34.71 97.569)"/><rect class="e" width="112" height="22.343" rx="1.389" transform="translate(34.71 165.605)"/><g transform="translate(39.507 171.891)"><path class="c" d="M0 0h47.801v2.634H0zm0 4.139h47.801v2.634H0zm0 4.138h47.801v2.634H0z"/><circle class="c" cx="4.315" cy="4.315" r="4.315" transform="translate(89.333 1.079)"/><path class="d" d="M72.572 4.315h3.236v3.236h-3.236zm-8.403 0h3.236v3.236h-3.236z"/><path class="c" d="M55.766 4.315h3.236v3.236h-3.236z"/></g><path class="c" d="M38.678 31.554h48.621V51.62H38.678z"/><path class="e" d="M42.59 34.641h41.282v3.065H42.59zm0 5.259h41.282v3.065H42.59zm0 5.259h41.282v3.065H42.59z"/><path class="c" d="M90.386 38.566h50.92v4.421h-50.92zm0-7.012h50.92v4.421h-50.92zm46.677 15.888h4.012v4.012h-4.012zm-46.81 0h21.529v4.012H90.253zm39.541 0h4.012v4.012h-4.012zm-7.27 0h4.012v4.012h-4.012zm-7.012 0h4.012v4.012h-4.012z"/><rect class="e" width="111.741" height="29.641" rx="1.389" transform="translate(34.71 197.276)"/><path class="c" d="M38.678 201.911h48.621v20.066H38.678z"/><path class="e" d="M42.59 204.998h41.282v3.065H42.59zm0 5.259h41.282v3.065H42.59zm0 5.259h41.282v3.065H42.59z"/><path class="c" d="M90.386 208.923h50.92v4.421h-50.92zm0-7.012h50.92v4.421h-50.92zm46.677 15.888h4.012v4.012h-4.012zm-46.81 0h21.529v4.012H90.253zm39.541 0h4.012v4.012h-4.012zm-7.27 0h4.012v4.012h-4.012zm-7.012 0h4.012v4.012h-4.012z"/><rect class="e" width="111.741" height="29.641" rx="1.389" transform="translate(34.71 232.996)"/><path class="c" d="M38.678 237.631h48.621v20.066H38.678z"/><path class="e" d="M42.59 240.718h41.282v3.065H42.59zm0 5.259h41.282v3.065H42.59zm0 5.259h41.282v3.065H42.59z"/><path class="c" d="M90.386 244.643h50.92v4.421h-50.92zm0-7.012h50.92v4.421h-50.92zm46.677 15.888h4.012v4.012h-4.012zm-46.81 0h21.529v4.012H90.253zm39.541 0h4.012v4.012h-4.012zm-7.27 0h4.012v4.012h-4.012zm-7.012 0h4.012v4.012h-4.012zM38.678 67.784h48.621V87.85H38.678z"/><path class="e" d="M42.59 70.871h41.282v3.065H42.59zm0 5.259h41.282v3.065H42.59zm0 5.259h41.282v3.065H42.59z"/><path class="c" d="M90.386 74.796h50.92v4.421h-50.92zm0-7.012h50.92v4.421h-50.92zm46.677 15.888h4.012v4.012h-4.012zm-46.81 0h21.529v4.012H90.253zm39.541 0h4.012v4.012h-4.012zm-7.27 0h4.012v4.012h-4.012zm-7.012 0h4.012v4.012h-4.012z"/><path class="e" d="M39.847 103.428h12.552v7.012H39.847zm0 11.102h12.552v7.012H39.847zm0 11.103h12.552v7.012H39.847zm0 11.102h12.552v7.012H39.847zm0 11.103h12.552v7.012H39.847zm33.999-44.41h12.552v7.012H73.846zm0 11.102h12.552v7.012H73.846zm0 11.103h12.552v7.012H73.846zm0 11.102h12.552v7.012H73.846zm0 11.103h12.552v7.012H73.846zm35.563-44.41h12.552v7.012h-12.552zm0 11.102h12.552v7.012h-12.552zm0 11.103h12.552v7.012h-12.552zm0 11.102h12.552v7.012h-12.552zm0 11.103h12.552v7.012h-12.552zm-51.781-44.41H70.18v7.012H57.628zm0 11.102H70.18v7.012H57.628zm0 11.103H70.18v7.012H57.628zm0 11.102H70.18v7.012H57.628zm0 11.103H70.18v7.012H57.628zm33.999-44.41h12.552v7.012H91.627zm0 11.102h12.552v7.012H91.627zm0 11.103h12.552v7.012H91.627zm0 11.102h12.552v7.012H91.627zm0 11.103h12.552v7.012H91.627zm35.563-44.41h12.552v7.012H127.19zm0 11.102h12.552v7.012H127.19zm0 11.103h12.552v7.012H127.19zm0 11.102h12.552v7.012H127.19zm0 11.103h12.552v7.012H127.19z"/></g></g><g transform="translate(107.405 184.052)"><rect width="237" height="159" rx="9" transform="translate(27.595 -.313)" fill="#0b3d7e"/><path d="M-.405 148.687h295v6a10 10 0 0 1-10 10h-275a10 10 0 0 1-10-10v-6z" fill="#5085cf"/><path class="a" d="M37.595 16.687h218v118h-218z"/></g><g transform="translate(145.252 24.479)" clip-path="url(#a)"><path class="k" d="M214.838 209.89a40.023 40.023 0 0 1 11.276 1.615v174.764h-402.053V181.591a75.175 75.175 0 0 1 110.707 40.231 30.754 30.754 0 0 1 43.159 9.41A41.7 41.7 0 0 1 53.9 254.981q0 .528-.014 1.052a22.2 22.2 0 0 1 32.208.99l16.82-129.155h16.531l18.306 141.779a26.609 26.609 0 0 1 37.362-15.113 40.5 40.5 0 0 1-.269-4.646 40 40 0 0 1 39.995-40z"/><path class="l" d="M152.635 289.88a36.722 36.722 0 0 1 20.515 6.226 54.664 54.664 0 0 1-.047-2.147 53.011 53.011 0 0 1 53.011-53.012v145.322h-402.053V199.103a83.7 83.7 0 0 1 76.707 50.195 53.955 53.955 0 0 1 56.143 7.135 53.022 53.022 0 0 1 88.781 24.264 42.6 42.6 0 0 1 50.855 17.989l9.775-170.817h9.712l9.913 173.431a36.787 36.787 0 0 1 26.687-11.419z"/><path d="M101.152 127.867c-1.555 0-3.459-.287-4.593-1.727a24.424 24.424 0 0 1-2.289-3.564h33.817a24.5 24.5 0 0 1-2.288 3.564c-1.135 1.439-3.039 1.727-4.594 1.727z" fill="#0067ad" fill-rule="evenodd"/><path class="k" d="M111.179 28.856c-2.7 0-6.244 3.34-9.8 8.69l-.007.007-.023.037c-.379.57-.756 1.168-1.135 1.781l-.253.415c-.38.628-.759 1.268-1.136 1.937h24.712c-4.366-7.737-9.011-12.867-12.358-12.867z"/><path d="M123.534 41.722H98.822q-.59 1.045-1.172 2.154c-.133.253-.264.52-.4.778-.253.492-.5.983-.754 1.491-.155.316-.307.643-.46.964-.223.468-.445.934-.664 1.413-.161.35-.317.707-.475 1.063-.206.465-.411.93-.614 1.405-.161.376-.317.758-.475 1.14-.193.467-.385.936-.573 1.412q-.234.593-.462 1.192c-.182.476-.36.952-.537 1.434q-.226.614-.443 1.235-.255.722-.5 1.452-.213.631-.42 1.266c-.159.49-.312.982-.464 1.475-.131.427-.263.854-.389 1.283-.148.5-.289 1.007-.429 1.512-.119.426-.238.851-.352 1.278-.136.518-.264 1.037-.392 1.556-.1.42-.211.837-.308 1.257-.127.545-.242 1.09-.359 1.635-.085.4-.176.792-.255 1.189-.126.624-.236 1.246-.348 1.869-.057.319-.121.636-.174.955q-.234 1.4-.417 2.784c-.037.278-.06.552-.095.829-.078.655-.157 1.311-.217 1.962-.034.366-.055.728-.083 1.092-.036.473-.08.948-.107 1.417l.009-.012a60.482 60.482 0 0 0-.1 3.332c0 12.322 3.034 28.024 7.877 37.041h33.817c4.842-9.017 7.877-24.719 7.877-37.041-.004-14.834-5.904-32.241-12.43-43.812z" fill="#6dbdef" fill-rule="evenodd"/><path d="M119.857 127.868h-17.358a23.7 23.7 0 0 0-4.544 14.532c0 10.639 6.383 23.94 13.222 29.5 6.839-5.557 13.223-18.858 13.223-29.5a23.709 23.709 0 0 0-4.543-14.532z" fill="#ff7c3b" fill-rule="evenodd"/><path d="M118.434 127.868h-14.511a17.781 17.781 0 0 0-2.116 8.641c0 7.539 4.525 16.966 9.372 20.9 4.848-3.938 9.372-13.366 9.372-20.9a17.771 17.771 0 0 0-2.117-8.641z" fill="#fbce3b" opacity=".41" fill-rule="evenodd"/><path d="M111.178 85.705a10.65 10.65 0 0 1 0-21.3v21.3z" fill="#8ec8aa" fill-rule="evenodd"/><path d="M111.178 85.705a10.65 10.65 0 0 0 0-21.3v21.3z" fill="#6ba585" fill-rule="evenodd"/><path d="M135.869 82.216q.094 1.678.095 3.32c0 2.1-.095 4.307-.265 6.556-.022.285-.041.567-.065.853-.052.618-.113 1.242-.177 1.866-.016.154-.028.307-.045.461q-.125 1.16-.278 2.327c-.032.245-.069.491-.1.736-.074.542-.15 1.084-.234 1.625-.046.3-.095.591-.142.886a120.33 120.33 0 0 1-.415 2.391q-.138.739-.285 1.472c-.058.287-.114.574-.174.859-.112.529-.228 1.053-.346 1.576-.054.237-.106.477-.162.712q-.243 1.033-.5 2.043c-.017.065-.032.131-.049.2q-.295 1.126-.615 2.218c-.045.156-.095.307-.141.462a73.08 73.08 0 0 1-.511 1.651c-.071.218-.145.431-.218.648q-.235.7-.482 1.39c-.082.228-.165.452-.249.675q-.247.657-.5 1.289c-.086.212-.171.425-.258.633-.183.437-.372.86-.561 1.277-.078.171-.155.347-.233.514q-.367.777-.749 1.5c-.035.066-.068.138-.1.2l-.01.019 10.524 11.869c1.543 2.742 3.688 1.431 4.943-.164 8.993-11.441.908-40.559-7.698-52.064z" fill="#b7621a" fill-rule="evenodd"/><path d="M93.631 121.29c-.038-.083-.078-.164-.116-.249q-.3-.655-.579-1.362l-.11-.28c-.192-.495-.381-1-.563-1.528l-.009-.026a50.2 50.2 0 0 1-.522-1.625l-.092-.3q-.243-.818-.47-1.674l-.085-.326c-.154-.595-.3-1.2-.445-1.814l-.006-.025a63.494 63.494 0 0 1-.4-1.88c-.022-.1-.043-.209-.064-.315q-.184-.935-.351-1.89a88.273 88.273 0 0 1-.646-4.388l-.034-.273q-.119-1.006-.217-2.015l-.028-.3a89.815 89.815 0 0 1-.292-4.17c0-.077-.007-.152-.011-.229q-.044-1.011-.063-2.009v-.268c-.023-1.364-.01-2.7.04-4 0-.124.008-.249.013-.373l.01-.207c.016-.334.034-.666.055-.994l.014-.22c.106-1.586.271-3.1.5-4.508.468-2.868-1.367-3.293-2.45-2.114-8.685 11.3-16.985 40.814-7.9 52.352 1.254 1.594 3.4 2.906 4.943.164l10.524-11.869a19.986 19.986 0 0 1-.646-1.285z" fill="#0a659e" fill-rule="evenodd"/><path class="k" d="M111.178 94.287a3.611 3.611 0 0 0-.737.084c-.074.015-.144.038-.216.058a3.812 3.812 0 0 0-.5.169c-.074.032-.147.062-.219.1a4.122 4.122 0 0 0-.492.292c-.046.031-.095.058-.139.091a4.316 4.316 0 0 0-.547.489c-.044.047-.081.1-.124.148a4.3 4.3 0 0 0-.337.443 3.73 3.73 0 0 0-.133.218 4.347 4.347 0 0 0-.235.474c-.031.074-.065.145-.092.22-.011.03-.027.057-.037.087l.018-.017a4.1 4.1 0 0 0-.225 1.545l1.921 35.772a2.545 2.545 0 0 0 .067.445 2.633 2.633 0 0 0 .119.371c.014.035.033.067.048.1a2.83 2.83 0 0 0 .13.257c.026.043.055.082.082.123a2.221 2.221 0 0 0 .148.2c.033.041.068.078.1.116a2.185 2.185 0 0 0 .173.165l.122.1a2.078 2.078 0 0 0 .2.13c.044.025.085.05.13.071a1.872 1.872 0 0 0 .245.091c.042.012.08.029.123.039a1.76 1.76 0 0 0 .4.047 2.293 2.293 0 0 0 2.089-2.254l1.921-35.772a4.273 4.273 0 0 0-4.003-4.402zm15.375-20.658c-.012-.142-.032-.282-.049-.423q-.06-.508-.153-1.006a14.777 14.777 0 0 0-.083-.429q-.126-.58-.3-1.144c-.019-.064-.033-.131-.053-.195-.137-.435-.295-.86-.468-1.277a6.808 6.808 0 0 0-.157-.353q-.2-.455-.43-.894c-.068-.13-.137-.259-.209-.387q-.257-.458-.544-.9c-.056-.086-.108-.175-.166-.26q-.376-.55-.8-1.065c-.073-.09-.151-.174-.227-.262-.217-.254-.442-.5-.675-.742-.1-.108-.21-.213-.317-.317a16.035 16.035 0 0 0-.723-.657c-.1-.082-.189-.167-.287-.248q-.512-.417-1.058-.791c-.081-.055-.167-.1-.248-.157a19.66 19.66 0 0 0-.9-.548c-.134-.075-.269-.146-.4-.217a15.309 15.309 0 0 0-.856-.412c-.131-.059-.261-.119-.394-.174-.055-.023-.107-.05-.162-.072l.024.021a15.431 15.431 0 0 0-20.074 20.075c-.007-.009-.015-.016-.022-.026.023.057.051.111.074.166.053.129.112.253.168.38.131.3.27.586.42.871.069.132.137.264.21.394.176.313.362.617.558.916l.148.234c.249.366.515.72.794 1.063.078.1.163.187.243.282a15.259 15.259 0 0 0 1.721 1.721c.088.074.171.152.26.225q.515.42 1.065.8c.085.058.175.11.262.166q.437.286.894.544c.128.071.257.14.387.208.293.153.591.3.895.431.118.052.233.107.352.156.418.173.843.332 1.277.468.065.02.132.034.2.054q.563.169 1.143.294c.142.03.286.057.428.083q.5.094 1.007.154c.141.017.281.036.423.049.471.044.947.072 1.429.072a15.447 15.447 0 0 0 15.447-15.447 17.27 17.27 0 0 0-.074-1.424z"/><path class="l" d="M111.178 86.78A11.723 11.723 0 1 1 122.9 75.057a11.723 11.723 0 0 1-11.722 11.723z"/><path d="M111.178 64.41c-.345 0-.686.02-1.022.051-.112.011-.22.03-.332.044-.171.022-.344.038-.513.068h.065a10.64 10.64 0 0 0-8.681 8.682v-.065c-.029.167-.045.339-.067.511-.014.112-.034.221-.044.335a10.77 10.77 0 0 0-.051 1.021A10.647 10.647 0 1 0 111.18 64.41z" fill-rule="evenodd" fill="#0b3d7e"/><path d="M106.921 66.74a4.061 4.061 0 1 1-4.06 4.061 4.061 4.061 0 0 1 4.06-4.061z" fill="#9cf5eb" fill-rule="evenodd"/><path class="k" d="M128.725 121.332c.039-.083.078-.164.116-.249q.3-.655.579-1.362l.109-.28c.193-.495.382-1 .563-1.528l.009-.026c.18-.526.353-1.07.521-1.625.031-.1.063-.2.092-.3q.244-.818.471-1.674l.085-.326c.154-.595.3-1.2.446-1.814l.006-.025c.142-.617.274-1.245.4-1.88l.064-.315q.184-.935.35-1.89l.056-.328c.226-1.333.424-2.691.591-4.06l.034-.273q.119-1.006.216-2.015l.027-.3c.13-1.395.229-2.789.293-4.17 0-.077.007-.152.011-.229q.044-1.011.063-2.009v-.268c.023-1.364.009-2.7-.04-4 0-.124-.008-.249-.013-.373l-.01-.207q-.024-.5-.055-.994l-.014-.22a48.666 48.666 0 0 0-.5-4.508c-.467-2.868 1.368-3.292 2.451-2.114 8.685 11.3 16.985 40.814 7.9 52.352-1.255 1.594-3.4 2.906-4.943.164l-10.524-11.869c.226-.404.438-.838.646-1.285z"/></g><path class="w" d="M76.406 296.629a.974.974 0 0 0 .592-1.748c-.117-.086-9.139-7.1-6.653-15.26a26.646 26.646 0 0 1 4.511-7.832c3.7-5.046 7.54-10.257 4.01-19.233a312.245 312.245 0 0 0-1.819-4.459c-3.988-9.617-5.812-14-.506-28.258a.973.973 0 0 0-1.823-.675c-5.569 14.96-3.4 20.194.535 29.68a244.33 244.33 0 0 1 1.8 4.425c3.138 7.963-.212 12.529-3.767 17.365a28.592 28.592 0 0 0-4.8 8.415c-2.884 9.476 6.914 17.057 7.334 17.374a.976.976 0 0 0 .586.206z"/><path class="w" d="M79.235 254.427a5.82 5.82 0 0 0 8.169.987l11.633-9.133a5.82 5.82 0 0 0 .984-8.172 5.819 5.819 0 0 0-8.169-.984l-11.636 9.133a5.825 5.825 0 0 0-.984 8.172zm-24.385-2.84a5.824 5.824 0 0 0 .89 8.184l11.541 9.268a5.82 5.82 0 0 0 8.167-.9 5.82 5.82 0 0 0-.892-8.181l-11.542-9.268a5.82 5.82 0 0 0-8.181.89zm-4.468-32.448a5.818 5.818 0 0 0 .892 8.181l11.53 9.265a5.821 5.821 0 0 0 8.183-.89 5.824 5.824 0 0 0-.892-8.184l-11.542-9.268a5.818 5.818 0 0 0-8.181.89zm24.637 4.321a5.822 5.822 0 0 0 8.112-1.4l8.527-12.088a5.822 5.822 0 0 0-1.393-8.115l-.009-.006a5.816 5.816 0 0 0-8.109 1.4l-8.527 12.088a5.822 5.822 0 0 0 1.393 8.115z"/><path d="M96.455 287.254v30.649a14.145 14.145 0 0 1-9.831 13.464v5.787h-20.42v-5.787a14.153 14.153 0 0 1-9.831-13.464v-30.649z" fill="#084689"/><path d="M233 332.739h43v2a3 3 0 0 1-3 3h-37a3 3 0 0 1-3-3v-2z" fill="#699be1"/></svg>