<?xml version="1.0" encoding="utf-8"?>
<!-- Generator: Adobe Illustrator 19.0.0, SVG Export Plug-In . SVG Version: 6.00 Build 0)  -->
<svg version="1.1" id="Lager_1" xmlns="http://www.w3.org/2000/svg" xmlns:xlink="http://www.w3.org/1999/xlink" x="0px" y="0px"
	 width="99.8px" height="100.2px" viewBox="-220.8 108 99.8 100.2" style="enable-background:new -220.8 108 99.8 100.2;"
	 xml:space="preserve">
<style type="text/css">
	.st0{fill:#F0DB4F;}
	.st1{fill:#323330;}
</style>
<g>
	<g>
		<g>
			<circle class="st0" cx="-171" cy="158" r="50"/>
		</g>
	</g>
	<g id="Layer_1_1_">
		<g>
			<g>
				<path class="st1" d="M-186.6,138.6h8.7v24.5c0,11-5.3,14.9-13.7,14.9c-2.1,0-4.7-0.3-6.4-0.9l1-7.1c1.2,0.4,2.8,0.7,4.5,0.7
					c3.7,0,6-1.7,6-7.6L-186.6,138.6L-186.6,138.6z"/>
				<path class="st1" d="M-170.2,168.4c2.3,1.2,6,2.4,9.7,2.4c4,0,6.1-1.7,6.1-4.3c0-2.4-1.8-3.8-6.5-5.4
					c-6.4-2.3-10.7-5.9-10.7-11.6c0-6.5,5.6-11.5,14.7-11.5c4.4,0,7.6,0.9,9.9,2l-2,7c-1.5-0.7-4.3-1.8-8-1.8
					c-3.8,0-5.6,1.8-5.6,3.7c0,2.5,2.1,3.6,7.2,5.5c6.8,2.5,10,6.1,10,11.6c0,6.5-4.9,12-15.6,12c-4.4,0-8.8-1.2-11-2.4
					L-170.2,168.4z"/>
			</g>
		</g>
	</g>
</g>
</svg>
