<svg id="Capa_1" data-name="Capa 1" xmlns="http://www.w3.org/2000/svg" viewBox="0 0 512 512"><defs><style>.cls-1{fill:#fcfcfc;}</style></defs><title>Rocket</title><path class="cls-1" d="M268.66,243.35a10,10,0,1,0,0,14.14A10,10,0,0,0,268.66,243.35Z" transform="translate(0 0)"/><path class="cls-1" d="M395.93,116.07a50,50,0,1,0,0,70.71A50,50,0,0,0,395.93,116.07Zm-14.14,56.57a30,30,0,1,1,0-42.43A30.05,30.05,0,0,1,381.79,172.64Z" transform="translate(0 0)"/><path class="cls-1" d="M509.07,2.93A9.94,9.94,0,0,0,501.64,0c-2.26.08-56.1,2.24-120.09,24.86-51.28,18.11-94,44-127,77.05-7.4,7.4-14.6,15.25-21.49,23.4-32.65-19.22-58.81-13.2-75.35-4.34C119.59,141.36,96,196.69,96,236.27a10,10,0,0,0,17.07,7.07C133.18,223.26,158,224.51,166,225.58l3.5,3.5A353.16,353.16,0,0,0,153,277.65,28.27,28.27,0,0,0,154.24,295a94.74,94.74,0,0,0-27,19c-25.74,25.74-31,88.48-31.18,91.13A10,10,0,0,0,106,416l.79,0c2.66-.21,65.39-5.44,91.13-31.18a94.56,94.56,0,0,0,19-27A28.23,28.23,0,0,0,234.36,359a350.82,350.82,0,0,0,48.56-16.52l3.5,3.5c1.07,8.1,2.32,32.87-17.76,53A10,10,0,0,0,275.73,416c39.58,0,94.92-23.57,115.3-61.65,8.85-16.54,14.87-42.7-4.35-75.35,8.15-6.89,16-14.09,23.4-21.49,33-33,58.94-75.76,77.05-127,22.62-64,24.78-117.83,24.86-120.09A10,10,0,0,0,509.07,2.93ZM118.38,214.76c6.21-30.06,24.25-63,48.73-76.15,16.36-8.76,34.24-7.9,53.25,2.51a404.05,404.05,0,0,0-42,68.49,10.46,10.46,0,0,0-5.3-3.11A85.41,85.41,0,0,0,118.38,214.76ZM183.8,370.63c-13.75,13.75-46,21-66.39,24,3-20.38,10.21-52.64,24-66.39A72,72,0,0,1,167,311.38L200.63,345A72.13,72.13,0,0,1,183.8,370.63Zm45.59-31a9.38,9.38,0,0,1-8.74-2.83l-19.58-19.59-25.83-25.82a9.4,9.4,0,0,1-2.84-8.74,325.11,325.11,0,0,1,12.48-38.2l82.7,82.7A325.58,325.58,0,0,1,229.39,339.6Zm144,5.29c-13.1,24.48-46.09,42.52-76.15,48.73,9.59-18,11.7-41,8.2-54.92a10.42,10.42,0,0,0-3-5.05,403.72,403.72,0,0,0,68.48-42C381.29,310.65,382.15,328.54,373.39,344.89Zm22.55-101.54a360.71,360.71,0,0,1-28.84,25.87,384.18,384.18,0,0,1-79.72,49.42l-94-94a384.44,384.44,0,0,1,49.42-79.72,364.61,364.61,0,0,1,25.87-28.84c29.63-29.62,67.86-53.2,113.67-70.17l83.8,83.79C449.15,175.49,425.57,213.72,395.94,243.35Zm77.37-134.76-69.89-69.9a449.33,449.33,0,0,1,87.74-17.85A449.26,449.26,0,0,1,473.31,108.59Z" transform="translate(0 0)"/><path class="cls-1" d="M240.37,413.05a10,10,0,0,0-14.14,0L198,441.34a10,10,0,0,0,14.14,14.14l28.28-28.29A10,10,0,0,0,240.37,413.05Z" transform="translate(0 0)"/><path class="cls-1" d="M99,271.63a10,10,0,0,0-14.14,0L56.52,299.91a10,10,0,0,0,14.14,14.14L99,285.77A10,10,0,0,0,99,271.63Z" transform="translate(0 0)"/><path class="cls-1" d="M169.66,427.2a10,10,0,0,0-14.14,0L87.78,494.93a10,10,0,1,0,14.14,14.14l67.74-67.73A10,10,0,0,0,169.66,427.2Z" transform="translate(0 0)"/><path class="cls-1" d="M89.66,427.2a10,10,0,0,0-14.14,0L7.78,494.93a10,10,0,0,0,14.14,14.14l67.74-67.73A10,10,0,0,0,89.66,427.2Z" transform="translate(0 0)"/><path class="cls-1" d="M84.8,342.34a10,10,0,0,0-14.14,0L2.93,410.08a10,10,0,0,0,14.14,14.14L84.8,356.48A10,10,0,0,0,84.8,342.34Z" transform="translate(0 0)"/><path class="cls-1" d="M311.08,200.92a10,10,0,0,0-14.14,0L282.8,215.06a10,10,0,0,0,14.14,14.14l14.14-14.14A10,10,0,0,0,311.08,200.92Z" transform="translate(0 0)"/></svg>