<svg id="Camada_1" data-name="Camada 1" xmlns="http://www.w3.org/2000/svg" viewBox="0 0 480 432"><defs><style>.cls-1{fill:#fff;}</style></defs><title>suitcase</title><path class="cls-1" d="M456,96H352V64a40.05,40.05,0,0,0-40-40H168a40.05,40.05,0,0,0-40,40V96H24A24,24,0,0,0,0,120V298.08a24.1,24.1,0,0,0,16,22.58V432a24,24,0,0,0,24,24H440a24,24,0,0,0,24-24V320.67a24.11,24.11,0,0,0,16-22.59V120A24,24,0,0,0,456,96ZM144,64a24,24,0,0,1,24-24H312a24,24,0,0,1,24,24V96H320V64a8,8,0,0,0-8-8H168a8,8,0,0,0-8,8V96H144ZM304,96H176V72H304ZM448,432a8,8,0,0,1-8,8H40a8,8,0,0,1-8-8V323.41l176,24.28V368a24,24,0,0,0,24,24h16a24,24,0,0,0,24-24V347.69l176-24.28ZM256,368a8,8,0,0,1-8,8H232a8,8,0,0,1-8-8V320a8,8,0,0,1,8-8h16a8,8,0,0,1,8,8Zm208-69.92a8,8,0,0,1-6.88,7.93l-2.22.3L272,331.54V320a24,24,0,0,0-24-24H232a24,24,0,0,0-24,24v11.54L22.89,306A8,8,0,0,1,16,298.08V120a8,8,0,0,1,8-8H456a8,8,0,0,1,8,8Z" transform="translate(0 -24)"/></svg>