<svg id="Capa_1" data-name="Capa 1" xmlns="http://www.w3.org/2000/svg" viewBox="0 0 494.86 496"><defs><style>.cls-1{fill:#fcfcfc;}</style></defs><title>support</title><path class="cls-1" d="M402.52,432,384,376.43a56,56,0,0,0-43.11-37.38l-53.46-9.73v-4.14A80.64,80.64,0,0,0,311.28,304h16.15a24,24,0,0,0,24-24V184a104,104,0,0,0-208,0v56a32.06,32.06,0,0,0,25.51,31.34,80.19,80.19,0,0,0,38.49,53.84v4.14L154,339.05a56,56,0,0,0-43.11,37.38l-3.2,9.61L80.4,358.79a8,8,0,0,1,0-11.32L112,315.88,52.69,256.57,17,292.28a56,56,0,0,0,0,79.19L125.1,479.59a56,56,0,0,0,78.94.24l39-35.7L230.86,432ZM335.43,280a8,8,0,0,1-8,8H320.7a79.71,79.71,0,0,0,5.22-16.66,32,32,0,0,0,9.51-3.79Zm-8-26.22V226.22a15.87,15.87,0,0,1,0,27.56Zm-160,0a15.87,15.87,0,0,1,0-27.56Zm0-53.78v9.14a31.48,31.48,0,0,0-8,3.31V184a88,88,0,0,1,176,0v28.45a31.12,31.12,0,0,0-8-3.31V200h-8a88,88,0,0,1-62.63-25.94l-9.37-9.37-9.37,9.37A88.06,88.06,0,0,1,175.43,200Zm16,56V215.7a103.72,103.72,0,0,0,64-28.44,103.61,103.61,0,0,0,64,28.44V256a63.54,63.54,0,0,1-8.66,32H247.43v16h42.19a63.9,63.9,0,0,1-106.19-48Zm88,76.31v.38l-24,24-24-24v-.38a79.89,79.89,0,0,0,48,0ZM126,381.49a40,40,0,0,1,30.79-26.71l55.92-10.16,34.7,34.69,34.69-34.69L338,354.78a40,40,0,0,1,30.79,26.72L380.33,416H214.86L183.7,384.84l-34.62,31.32a8.18,8.18,0,0,1-11.32,0l-17.47-17.47ZM52.68,279.19l36.69,36.69-8.69,8.69L44,287.88ZM193,468.3a40,40,0,0,1-56.56,0L28.28,360.17a40,40,0,0,1,0-56.57l4.4-4.4,36.68,36.69-.28.29a24,24,0,0,0,0,33.94l57.36,57.37a23.87,23.87,0,0,0,17,7,23.57,23.57,0,0,0,16.68-6.75l.6-.54,36.86,36.86Zm16.4-15-36.77-36.78,10.57-9.55,36.71,36.71Z" transform="translate(-0.57 0)"/><path class="cls-1" d="M471.43,0h-112a24,24,0,0,0-24,24V88a24,24,0,0,0,24,24H380.8l-8.28,48.25L449.72,112h21.71a24,24,0,0,0,24-24V24A24,24,0,0,0,471.43,0Zm8,88a8,8,0,0,1-8,8h-26.3l-50.81,31.75L399.77,96H359.43a8,8,0,0,1-8-8V24a8,8,0,0,1,8-8h112a8,8,0,0,1,8,8Z" transform="translate(-0.57 0)"/><rect class="cls-1" x="366.86" y="32" width="96" height="16"/><rect class="cls-1" x="366.86" y="64" width="64" height="16"/><rect class="cls-1" x="446.86" y="64" width="16" height="16"/><path class="cls-1" d="M247.43,24a223.86,223.86,0,0,0-218,173.16L14.29,171.89.57,180.12,28.69,227l46.86-28.12-8.23-13.72-21.68,13A208.05,208.05,0,0,1,309.06,49.28L313.8,34A223.91,223.91,0,0,0,247.43,24Z" transform="translate(-0.57 0)"/><path class="cls-1" d="M491.54,177.14,444.68,149l-28.11,46.86,13.72,8.23,14-23.33A208.15,208.15,0,0,1,409,379L421.46,389A224,224,0,0,0,459.8,176.75l23.51,14.11Z" transform="translate(-0.57 0)"/></svg>